#!OML:ASF E:\Mandelcareful walks\Project 1\Capture day 1\Session 1\Subject1.ASF
:FULLY-SPECIFIED
:DEGREES
505
root 12.3699 15.2497 2.57814 -160.918 -66.073 175.521
lowerback 39.6479 3.52924 -4.06177
upperback 8.2123 1.4842 1.52299
thorax -10.2406 0.136246 3.23615
lowerneck -32.6118 -6.27949 -9.17109
upperneck 27.3165 -5.73536 3.62351
head 15.3986 -2.86046 1.7536
rclavicle -4.17448e-014 -2.127e-014
rhumerus -22.3608 10.7611 -82.2439
rradius 84.3852
rwrist -30.3714
rhand -18.5532 -32.5969
rfingers 7.12502
rthumb 7.73642 -62.4354
lclavicle -4.17448e-014 -2.127e-014
lhumerus -33.5062 -29.057 86.2726
lradius 76.175
lwrist 23.5854
lhand -31.6388 -10.0316
lfingers 7.12502
lthumb -4.89993 19.8917
rfemur -49.8759 -8.23913 0.41319
rtibia 39.2778
rfoot -1.74464 -0.799117
rtoes -21.6536
lfemur -50.1326 17.1963 -22.2662
ltibia 66.8714
lfoot -28.7674 10.082
ltoes -2.05559
506
root 12.3874 15.2327 2.51268 -160.709 -65.7423 175.564
lowerback 39.5029 3.62206 -4.03303
upperback 8.34363 1.59338 1.47758
thorax -10.0505 0.173753 3.12789
lowerneck -32.8979 -5.88696 -9.00315
upperneck 27.4621 -5.16696 3.46066
head 15.4657 -2.63236 1.78454
rclavicle -2.38542e-015 -8.54774e-015
rhumerus -21.5054 11.4043 -82.2011
rradius 84.7202
rwrist -30.4431
rhand -18.8922 -33.3175
rfingers 7.12502
rthumb 7.40923 -63.1677
lclavicle -2.38542e-015 -8.54774e-015
lhumerus -33.8574 -28.8854 86.2363
lradius 76.4242
lwrist 23.648
lhand -31.3035 -10.4667
lfingers 7.12502
lthumb -4.57621 19.4639
rfemur -50.6785 -8.33716 0.835674
rtibia 39.8901
rfoot -1.80439 -0.289859
rtoes -20.7157
lfemur -50.4356 17.397 -22.0952
ltibia 67.0879
lfoot -28.6999 10.25
ltoes -2.44841
507
root 12.397 15.2249 2.44962 -160.42 -65.5952 175.617
lowerback 39.3084 3.56625 -3.84031
upperback 8.40939 1.59948 1.41246
thorax -9.90664 0.171262 2.95692
lowerneck -33.2289 -5.32077 -8.45592
upperneck 27.6536 -4.34546 2.73659
head 15.5181 -2.34889 1.56998
rclavicle -6.71892e-014 -8.90555e-014
rhumerus -20.6025 12.137 -82.3143
rradius 84.9781
rwrist -30.5631
rhand -18.6847 -32.2118
rfingers 7.12502
rthumb 7.60954 -62.0549
lclavicle -6.71892e-014 -8.90555e-014
lhumerus -34.3031 -28.6894 86.2513
lradius 76.5953
lwrist 23.8158
lhand -31.3234 -10.8648
lfingers 7.12502
lthumb -4.59541 19.0653
rfemur -51.4302 -8.58172 1.27846
rtibia 40.5471
rfoot -1.89571 0.105886
rtoes -19.3886
lfemur -50.8669 17.3661 -21.8848
ltibia 67.2747
lfoot -28.634 10.5224
ltoes -3.17197
508
root 12.4047 15.2161 2.38706 -159.572 -65.648 175.059
lowerback 39.235 3.4097 -3.74249
upperback 8.36853 1.45179 1.33548
thorax -9.91342 0.110621 2.88494
lowerneck -33.4077 -4.67061 -7.89953
upperneck 27.848 -3.40843 1.95445
head 15.548 -2.03067 1.35532
rclavicle 3.4191e-014 2.82274e-014
rhumerus -20.0907 13.1867 -82.17
rradius 85.6472
rwrist -31.1955
rhand -18.8087 -32.1839
rfingers 7.12502
rthumb 7.48977 -62.0313
lclavicle 3.4191e-014 2.82274e-014
lhumerus -34.8793 -28.3458 86.3433
lradius 76.6999
lwrist 24.1328
lhand -31.4215 -11.3012
lfingers 7.12502
lthumb -4.69017 18.6269
rfemur -52.0804 -8.99376 1.42846
rtibia 41.2397
rfoot -2.14742 0.333004
rtoes -18.188
lfemur -51.2945 17.1126 -21.9024
ltibia 67.3782
lfoot -28.5121 10.793
ltoes -3.6525
509
root 12.4119 15.1998 2.32105 -158.493 -65.7911 174.14
lowerback 39.3334 3.27418 -3.7311
upperback 8.26853 1.29605 1.29352
thorax -10.0462 0.0509681 2.89744
lowerneck -33.2845 -4.08872 -7.6938
upperneck 27.9111 -2.51256 1.44213
head 15.4876 -1.72643 1.30503
rclavicle -4.17448e-014 4.51241e-014
rhumerus -19.3046 14.2597 -82.1893
rradius 85.7929
rwrist -31.571
rhand -18.7081 -32.3135
rfingers 7.12502
rthumb 7.58694 -62.1574
lclavicle -4.17448e-014 4.51241e-014
lhumerus -35.5642 -27.9682 86.6155
lradius 76.7814
lwrist 24.6375
lhand -31.4716 -11.8113
lfingers 7.12502
lthumb -4.73857 18.1157
rfemur -52.6365 -9.42754 1.37832
rtibia 42.0245
rfoot -2.5211 0.54142
rtoes -17.4759
lfemur -51.4982 16.8149 -22.0452
ltibia 67.4452
lfoot -28.5253 10.9128
ltoes -3.69944
510
root 12.4161 15.1898 2.25378 -157.741 -66.1024 173.417
lowerback 39.6093 3.0712 -3.35988
upperback 8.35887 1.14393 1.16444
thorax -10.0151 -0.0316228 2.62689
lowerneck -33.7594 -3.66098 -7.4652
upperneck 28.0134 -1.81327 1.02751
head 15.5839 -1.48041 1.24404
rclavicle -1.59028e-015 1.74931e-014
rhumerus -18.4489 15.184 -82.055
rradius 86.2492
rwrist -32.0146
rhand -18.5346 -32.4818
rfingers 7.12502
rthumb 7.75436 -62.3196
lclavicle -1.59028e-015 1.74931e-014
lhumerus -35.7335 -27.7694 86.5357
lradius 76.8797
lwrist 25.4039
lhand -31.7554 -12.4489
lfingers 7.12502
lthumb -5.0126 17.4718
rfemur -52.9802 -9.88026 1.42579
rtibia 42.8604
rfoot -2.98589 0.714848
rtoes -16.7193
lfemur -51.4715 16.4601 -22.0039
ltibia 67.4623
lfoot -28.6148 10.8993
ltoes -3.6678
511
root 12.456 15.1655 2.1707 -158.067 -66.3858 174.191
lowerback 39.8152 2.99639 -2.86575
upperback 8.31411 1.23625 1.10978
thorax -10.1286 0.00687237 2.27098
lowerneck -34.0153 -3.16214 -6.88463
upperneck 28.0097 -1.15158 0.408355
head 15.5896 -1.24216 1.03068
rclavicle 1.86858e-014 3.97569e-014
rhumerus -17.39 15.9304 -82.196
rradius 86.4632
rwrist -32.554
rhand -18.8711 -33.3586
rfingers 7.12502
rthumb 7.42955 -63.2082
lclavicle 1.86858e-014 3.97569e-014
lhumerus -35.9656 -27.7373 86.2087
lradius 77.0914
lwrist 26.4778
lhand -32.4895 -13.2772
lfingers 7.12502
lthumb -5.72136 16.6255
rfemur -53.9356 -9.62392 2.04681
rtibia 43.8101
rfoot -3.34795 0.365341
rtoes -16.2727
lfemur -52.1458 16.6241 -21.3482
ltibia 67.6394
lfoot -28.3261 10.6131
ltoes -3.72997
512
root 12.4649 15.1541 2.09189 -157.672 -66.6267 174.166
lowerback 39.5882 2.873 -2.54445
upperback 8.3934 1.20444 0.963797
thorax -9.95342 -0.0107234 1.96111
lowerneck -34.1209 -2.71895 -6.52423
upperneck 27.9574 -0.545991 3.95972e-005
head 15.5571 -1.01725 0.932263
rclavicle 9.93923e-015 3.49861e-014
rhumerus -16.1196 16.7373 -82.2777
rradius 86.4964
rwrist -33.2717
rhand -19.1021 -34.1088
rfingers 7.12502
rthumb 7.20656 -63.9661
lclavicle 9.93923e-015 3.49861e-014
lhumerus -36.2939 -27.5424 85.8675
lradius 77.4012
lwrist 27.5801
lhand -33.0362 -13.7286
lfingers 7.12502
lthumb -6.24913 16.1592
rfemur -54.69 -9.78616 2.37842
rtibia 44.7867
rfoot -3.85897 0.431712
rtoes -16.2265
lfemur -52.5489 16.7629 -21.1478
ltibia 67.8368
lfoot -28.3486 10.2127
ltoes -3.79462
513
root 12.4792 15.128 2.00935 -156.836 -66.9126 173.957
lowerback 39.0485 2.74007 -2.42644
upperback 8.43664 1.11756 0.869022
thorax -9.71848 -0.0416133 1.83592
lowerneck -34.1427 -2.38547 -6.47353
upperneck 27.8078 -0.0673845 -0.0518722
head 15.4731 -0.817874 1.00945
rclavicle -4.41302e-014 -2.28602e-014
rhumerus -14.6866 17.6816 -82.2431
rradius 86.3197
rwrist -33.9465
rhand -19.0206 -34.3314
rfingers 7.12502
rthumb 7.28528 -64.186
lclavicle -4.41302e-014 -2.28602e-014
lhumerus -36.7176 -27.0017 85.5555
lradius 77.7735
lwrist 28.5146
lhand -33.2775 -13.7218
lfingers 7.12502
lthumb -6.48214 16.159
rfemur -55.8172 -10.0714 2.68137
rtibia 45.8681
rfoot -4.42814 0.414002
rtoes -15.9026
lfemur -53.4312 16.9677 -21.1177
ltibia 68.1888
lfoot -28.3629 9.70535
ltoes -3.93564
514
root 12.4992 15.0985 1.92723 -155.591 -67.3536 173.12
lowerback 38.8439 2.60539 -2.25204
upperback 8.51233 1.00513 0.639473
thorax -9.55192 -0.0895888 1.54541
lowerneck -34.2863 -2.14562 -6.09214
upperneck 27.6115 0.12094 -0.126326
head 15.401 -0.700695 0.957841
rclavicle -2.26615e-014 3.73715e-014
rhumerus -12.9577 18.1749 -82.2388
rradius 85.8399
rwrist -34.4281
rhand -18.81 -34.5754
rfingers 7.12502
rthumb 7.48858 -64.4229
lclavicle -2.26615e-014 3.73715e-014
lhumerus -37.1307 -27.0573 85.2984
lradius 78.0247
lwrist 30.2048
lhand -34.6945 -15.9956
lfingers 7.12502
lthumb -7.8499 13.8387
rfemur -56.7448 -10.6594 2.80123
rtibia 47.0204
rfoot -5.03513 0.516388
rtoes -15.2617
lfemur -54.1723 16.9595 -21.2541
ltibia 68.5172
lfoot -28.2063 9.31852
ltoes -4.03725
515
root 12.5224 15.0656 1.84034 -155.102 -67.8131 172.87
lowerback 38.9213 2.56204 -2.0109
upperback 8.57862 1.02927 0.566047
thorax -9.49854 -0.0824683 1.33056
lowerneck -34.2336 -2.01606 -5.96518
upperneck 27.3025 0.215984 -0.0596714
head 15.2436 -0.624774 0.987035
rclavicle 5.36719e-014 3.49861e-014
rhumerus -11.1262 18.6761 -81.9949
rradius 85.3901
rwrist -35.0832
rhand -18.8742 -34.7744
rfingers 7.12502
rthumb 7.4266 -64.6241
lclavicle 5.36719e-014 3.49861e-014
lhumerus -37.4039 -26.8535 85.1331
lradius 78.2626
lwrist 30.8481
lhand -36.0395 -16.8474
lfingers 7.12502
lthumb -9.14789 12.9341
rfemur -57.5526 -10.9007 3.08812
rtibia 48.3159
rfoot -5.67844 0.481152
rtoes -14.8895
lfemur -54.7619 17.174 -21.0433
ltibia 68.8738
lfoot -27.848 8.89529
ltoes -3.96674
516
root 12.5474 15.0237 1.74507 -155.108 -68.0858 173.112
lowerback 38.9819 2.78523 -1.89429
upperback 8.71843 1.33214 0.590275
thorax -9.36952 0.0456217 1.1724
lowerneck -34.2626 -2.04519 -5.86238
upperneck 26.9153 0.150712 -0.13062
head 15.0753 -0.638765 0.9251
rclavicle -6.36111e-015 2.62396e-014
rhumerus -9.28887 18.9907 -81.4615
rradius 85.1384
rwrist -36.2698
rhand -19.62 -34.4217
rfingers 7.12502
rthumb 6.70667 -64.2955
lclavicle -6.36111e-015 2.62396e-014
lhumerus -37.3108 -26.7183 84.9321
lradius 78.4238
lwrist 31.0586
lhand -36.888 -16.7944
lfingers 7.12502
lthumb -9.96656 12.9496
rfemur -58.5395 -10.8434 3.54254
rtibia 49.7604
rfoot -6.42135 0.538949
rtoes -15.0791
lfemur -55.3671 17.7881 -20.6803
ltibia 69.2979
lfoot -27.5712 8.3094
ltoes -4.10331
